<svg width="100%" height="100%" id="svg" viewBox="0 0 1440 390" xmlns="http://www.w3.org/2000/svg" class="transition duration-300 ease-in-out delay-150"><defs><linearGradient id="gradient" x1="50%" y1="100%" x2="50%" y2="0%"><stop offset="5%" stop-color="#1f2937"></stop><stop offset="95%" stop-color="#1f2937"></stop></linearGradient></defs><path d="M 0,400 L 0,100 C 114.89285714285714,90.42857142857143 229.78571428571428,80.85714285714286 343,85 C 456.2142857142857,89.14285714285714 567.7499999999999,106.99999999999999 682,114 C 796.2500000000001,121.00000000000001 913.2142857142858,117.14285714285715 1040,113 C 1166.7857142857142,108.85714285714285 1303.392857142857,104.42857142857142 1440,100 L 1440,400 L 0,400 Z" stroke="none" stroke-width="0" fill="url(#gradient)" fill-opacity="0.53" class="transition-all duration-300 ease-in-out delay-150 path-0"></path><defs><linearGradient id="gradient" x1="50%" y1="100%" x2="50%" y2="0%"><stop offset="5%" stop-color="#1f2937"></stop><stop offset="95%" stop-color="#1f2937"></stop></linearGradient></defs><path d="M 0,400 L 0,233 C 125.5,225.57142857142856 251,218.14285714285714 364,223 C 477,227.85714285714286 577.5,245 701,259 C 824.5,273 971,283.85714285714283 1098,279 C 1225,274.14285714285717 1332.5,253.57142857142858 1440,233 L 1440,400 L 0,400 Z" stroke="none" stroke-width="0" fill="url(#gradient)" fill-opacity="1" class="transition-all duration-300 ease-in-out delay-150 path-1"></path></svg>