<svg id="Layer_1" data-name="Layer 1" xmlns="http://www.w3.org/2000/svg" viewBox="0 0 262.66 252.04"><defs><style>.cls-1,.cls-2,.cls-3{fill:#fff;}.cls-2{font-size:91.33px;}.cls-2,.cls-3{font-family:Comfortaa-Bold, Comfortaa;font-weight:700;}.cls-3{font-size:71.3px;}.cls-4{letter-spacing:-0.05em;}.cls-5{letter-spacing:0em;}</style></defs><rect class="cls-1" x="81.19" y="97.29" width="104.04" height="11.13" rx="3.9"/><path class="cls-1" d="M182.67,87.62h74a3.07,3.07,0,0,1,3.07,3.07V94A4.73,4.73,0,0,1,255,98.75H182.67a3.07,3.07,0,0,1-3.07-3.07v-5a3.07,3.07,0,0,1,3.07-3.07Z" transform="translate(-4.01 195.11) rotate(-53.36)"/><path class="cls-1" d="M71.95,85.06H137.2a3.56,3.56,0,0,1,3.56,3.56v4a3.56,3.56,0,0,1-3.56,3.56H72.63a4.24,4.24,0,0,1-4.24-4.24V88.62A3.56,3.56,0,0,1,71.95,85.06Z" transform="translate(-3.87 176.46) rotate(-90)"/><circle class="cls-1" cx="105.57" cy="138.81" r="14.62"/><circle class="cls-1" cx="164.32" cy="138.81" r="14.62"/><text class="cls-2" transform="translate(105.57 81.33)">R</text><text class="cls-3" transform="translate(0 228.37)">Mar<tspan class="cls-4" x="152.79" y="0">k</tspan><tspan class="cls-5" x="189.79" y="0">et</tspan></text><path class="cls-1" d="M79.77,54.44h26.8A3.56,3.56,0,0,1,110.14,58v4a3.56,3.56,0,0,1-3.56,3.56H80.45a4.24,4.24,0,0,1-4.24-4.24V58a3.56,3.56,0,0,1,3.56-3.56Z" transform="translate(168.53 101.27) rotate(-180)"/></svg>