<svg id="Layer_1" data-name="Layer 1" xmlns="http://www.w3.org/2000/svg" viewBox="0 0 169.96 153.43"><defs><style>.cls-1,.cls-2{fill:#6377ff;}.cls-2{isolation:isolate;font-size:91.33px;font-family:Comfortaa-Bold, Comfortaa;font-weight:700;}</style></defs><rect class="cls-1" x="22.8" y="97.29" width="104.04" height="11.13" rx="3.9"/><path class="cls-1" d="M165.15,151l44.16-59.38a3.08,3.08,0,0,1,4.3-.63h0l2.66,2a4.74,4.74,0,0,1,1,6.62l0,0-43.17,58a3.07,3.07,0,0,1-4.29.63h0l-4-3a3.07,3.07,0,0,1-.64-4.3h0Z" transform="translate(-48.23 -50.16)"/><path class="cls-1" d="M71,154.67V89.42a3.56,3.56,0,0,1,3.56-3.56h4a3.56,3.56,0,0,1,3.56,3.56V154a4.24,4.24,0,0,1-4.24,4.24H74.59A3.56,3.56,0,0,1,71,154.67Z" transform="translate(-48.23 -50.16)"/><circle class="cls-1" cx="47.18" cy="138.81" r="14.62"/><circle class="cls-1" cx="105.93" cy="138.81" r="14.62"/><text class="cls-2" transform="translate(47.18 81.33)">R</text><path class="cls-1" d="M78.6,97H51.8a3.56,3.56,0,0,1-3.57-3.55h0v-4a3.56,3.56,0,0,1,3.56-3.56H77.92a4.24,4.24,0,0,1,4.24,4.24v3.32A3.56,3.56,0,0,1,78.6,97Z" transform="translate(-48.23 -50.16)"/></svg>