<?xml version="1.0" encoding="utf-8"?>
<!-- Generator: Adobe Illustrator 26.0.3, SVG Export Plug-In . SVG Version: 6.00 Build 0)  -->
<svg version="1.0" id="katman_1" xmlns="http://www.w3.org/2000/svg" xmlns:xlink="http://www.w3.org/1999/xlink" x="0px" y="0px"
	 viewBox="0 0 600 450" style="enable-background:new 0 0 600 450;" xml:space="preserve">
<style type="text/css">
	.st0{fill:#0A4693;}
	.st1{fill:#FFFFFF;}
	.st2{fill:#F2AE13;}
</style>
<symbol  id="v-card_visa" viewBox="-390 -250 780 500">
	<path class="st0" d="M-350-250h700c22.1,0,40,17.9,40,40v420c0,22.1-17.9,40-40,40h-700c-22.1,0-40-17.9-40-40v-420
		C-390-232.1-372.1-250-350-250z"/>
	<path class="st1" d="M-96.8,98.7L-63.4-97h53.4L-43.5,98.7H-96.8z M149.3-92.8c-10.6-4-27.1-8.2-47.8-8.2
		c-52.7,0-89.9,26.6-90.2,64.6C11-8.3,37.8,7.4,58.1,16.8C78.8,26.4,85.8,32.5,85.7,41c-0.1,13.1-16.6,19.1-31.9,19.1
		c-21.4,0-32.7-3-50.2-10.3l-6.9-3.1l-7.5,43.8c12.5,5.5,35.5,10.2,59.4,10.4c56.1,0,92.5-26.2,92.9-66.9
		c0.2-22.3-14-39.2-44.8-53.2c-18.6-9.1-30.1-15.1-30-24.3c0-8.1,9.7-16.8,30.6-16.8c17.4-0.3,30.1,3.5,39.9,7.5l4.8,2.3L149.3-92.8
		 M286.6-97h-41.2c-12.8,0-22.3,3.5-27.9,16.2L138.2,98.6h56c0,0,9.2-24.1,11.2-29.4c6.1,0,60.6,0.1,68.3,0.1
		c1.6,6.9,6.5,29.3,6.5,29.3h49.5L286.6-97L286.6-97z M221.2,29.4c4.4-11.3,21.3-54.7,21.3-54.7c-0.3,0.5,4.4-11.3,7.1-18.7
		l3.6,16.9c0,0,10.2,46.7,12.4,56.5H221.2z M-142.1-97l-52.2,133.5l-5.6-27.1c-9.7-31.3-40-65.2-73.9-82.1L-226,98.4l56.5-0.1
		l84-195.4L-142.1-97"/>
	<path class="st2" d="M-243.1-97h-86l-0.7,4.1c66.9,16.2,111.2,55.4,129.6,102.4l-18.7-90C-222.1-92.9-231.5-96.6-243.1-97"/>
</symbol>
<use xlink:href="#v-card_visa"  width="780" height="500" x="-390" y="-250" transform="matrix(0.5667 0 0 0.5667 300 225)" style="overflow:visible;"/>
</svg>
